<svg xmlns="http://www.w3.org/2000/svg" xmlns:xlink="http://www.w3.org/1999/xlink" width="500" zoomAndPan="magnify" viewBox="0 0 375 374.999991" height="500" preserveAspectRatio="xMidYMid meet" version="1.0"><defs><g/><clipPath id="f446c83921"><path d="M 97 39.769531 L 141 39.769531 L 141 72 L 97 72 Z M 97 39.769531 " clip-rule="nonzero"/></clipPath><clipPath id="2b19c1bd3e"><path d="M 233 39.769531 L 278 39.769531 L 278 72 L 233 72 Z M 233 39.769531 " clip-rule="nonzero"/></clipPath><clipPath id="a7a559fc1f"><path d="M 2 0.160156 L 26 0.160156 L 26 35 L 2 35 Z M 2 0.160156 " clip-rule="nonzero"/></clipPath><clipPath id="7e322793ec"><path d="M 114 0.160156 L 142 0.160156 L 142 34 L 114 34 Z M 114 0.160156 " clip-rule="nonzero"/></clipPath><clipPath id="96247fe0ad"><path d="M 201 0.160156 L 207 0.160156 L 207 9 L 201 9 Z M 201 0.160156 " clip-rule="nonzero"/></clipPath><clipPath id="9ca8ce6c3b"><rect x="0" width="231" y="0" height="43"/></clipPath><clipPath id="393c73deb3"><path d="M 0.199219 5 L 17 5 L 17 21 L 0.199219 21 Z M 0.199219 5 " clip-rule="nonzero"/></clipPath><clipPath id="278d8f1431"><path d="M 96 6 L 108.921875 6 L 108.921875 20 L 96 20 Z M 96 6 " clip-rule="nonzero"/></clipPath><clipPath id="71787b93ed"><rect x="0" width="109" y="0" height="26"/></clipPath></defs><path fill="#cba35c" d="M 187.332031 147.109375 C 186.425781 147.109375 185.726562 146.761719 185.269531 146.496094 C 184.417969 145.996094 183.890625 145.320312 183.503906 144.820312 C 183.421875 144.71875 183.34375 144.613281 183.257812 144.515625 C 180.46875 141.253906 179.132812 137.257812 179.496094 133.28125 C 179.875 129.113281 182.085938 125.191406 185.714844 122.242188 L 187.339844 120.921875 L 188.964844 122.242188 C 192.597656 125.191406 194.804688 129.113281 195.183594 133.28125 C 195.542969 137.257812 194.210938 141.246094 191.417969 144.515625 C 191.335938 144.613281 191.257812 144.71875 191.175781 144.816406 C 190.800781 145.28125 190.285156 145.925781 189.460938 146.445312 C 189.207031 146.605469 188.429688 147.089844 187.398438 147.109375 C 187.371094 147.109375 187.351562 147.109375 187.332031 147.109375 Z M 187.917969 142.066406 Z M 187.339844 127.808594 C 185.765625 129.578125 184.820312 131.632812 184.625 133.753906 C 184.386719 136.367188 185.269531 138.925781 187.171875 141.15625 C 187.222656 141.222656 187.28125 141.285156 187.332031 141.351562 C 187.382812 141.285156 187.441406 141.222656 187.492188 141.15625 C 189.402344 138.925781 190.277344 136.367188 190.039062 133.753906 C 189.851562 131.632812 188.910156 129.578125 187.339844 127.808594 Z M 187.339844 127.808594 " fill-opacity="1" fill-rule="nonzero"/><path fill="#cba35c" d="M 131.976562 230.324219 C 116.386719 230.324219 100.96875 225.792969 87.820312 217.234375 L 81.910156 213.386719 C 80.714844 212.609375 80.375 211.007812 81.148438 209.8125 C 81.921875 208.617188 83.519531 208.273438 84.710938 209.050781 L 90.625 212.894531 C 120.453125 232.3125 160.359375 228.113281 185.507812 202.902344 L 223.835938 164.464844 L 225.605469 162.664062 L 232.992188 155.253906 C 243.046875 145.171875 243.046875 128.765625 232.992188 118.6875 C 228.121094 113.800781 221.648438 111.109375 214.757812 111.109375 C 207.867188 111.109375 201.398438 113.800781 196.523438 118.6875 L 189.136719 126.09375 C 188.132812 127.101562 186.5 127.101562 185.488281 126.09375 C 184.484375 125.085938 184.484375 123.449219 185.488281 122.4375 L 192.875 115.027344 C 198.722656 109.164062 206.488281 105.941406 214.753906 105.941406 C 223.015625 105.941406 230.789062 109.164062 236.628906 115.027344 C 242.46875 120.890625 245.691406 128.679688 245.691406 136.96875 C 245.691406 145.253906 242.476562 153.050781 236.628906 158.90625 L 189.144531 206.558594 C 176.066406 219.664062 158.738281 227.949219 140.355469 229.882812 C 137.578125 230.179688 134.777344 230.324219 131.976562 230.324219 Z M 131.976562 230.324219 " fill-opacity="1" fill-rule="nonzero"/><path fill="#cba35c" d="M 242.675781 230.324219 C 239.878906 230.324219 237.074219 230.171875 234.277344 229.882812 C 215.894531 227.945312 198.566406 219.664062 185.488281 206.558594 L 143.59375 164.542969 L 143.605469 164.53125 L 138 158.90625 C 125.933594 146.804688 125.933594 127.121094 138 115.023438 C 143.84375 109.160156 151.609375 105.933594 159.875 105.933594 C 168.136719 105.933594 175.910156 109.160156 181.75 115.023438 L 189.136719 122.429688 C 190.144531 123.4375 190.144531 125.074219 189.136719 126.089844 C 188.132812 127.097656 186.5 127.097656 185.488281 126.089844 L 178.101562 118.679688 C 173.230469 113.792969 166.757812 111.105469 159.867188 111.105469 C 152.976562 111.105469 146.507812 113.792969 141.632812 118.679688 C 136.761719 123.566406 134.078125 130.058594 134.078125 136.96875 C 134.078125 143.878906 136.761719 150.367188 141.632812 155.253906 L 150.804688 164.453125 L 150.792969 164.464844 L 189.117188 202.90625 C 214.273438 228.117188 254.179688 232.320312 284.003906 212.902344 L 289.914062 209.054688 C 291.105469 208.28125 292.707031 208.621094 293.480469 209.816406 C 294.253906 211.015625 293.917969 212.617188 292.71875 213.394531 L 286.808594 217.238281 C 273.683594 225.792969 258.265625 230.324219 242.675781 230.324219 Z M 242.675781 230.324219 " fill-opacity="1" fill-rule="nonzero"/><path fill="#cba35c" d="M 301.566406 203.617188 C 300.910156 203.617188 300.246094 203.367188 299.742188 202.863281 C 298.738281 201.855469 298.738281 200.21875 299.742188 199.203125 C 325.332031 173.542969 325.332031 131.78125 299.742188 106.121094 C 287.347656 93.691406 270.867188 86.84375 253.335938 86.84375 C 235.804688 86.84375 219.320312 93.691406 206.925781 106.121094 L 187.332031 125.773438 L 167.738281 106.121094 C 155.34375 93.691406 138.863281 86.84375 121.328125 86.84375 C 103.796875 86.84375 87.316406 93.691406 74.921875 106.121094 C 49.332031 131.78125 49.332031 173.542969 74.921875 199.203125 C 75.925781 200.210938 75.925781 201.847656 74.921875 202.863281 C 73.917969 203.871094 72.285156 203.871094 71.273438 202.863281 C 57.910156 189.457031 50.550781 171.628906 50.550781 152.664062 C 50.550781 133.703125 57.910156 115.875 71.285156 102.460938 C 84.660156 89.046875 102.429688 81.667969 121.34375 81.667969 C 140.253906 81.667969 158.023438 89.046875 171.398438 102.460938 L 187.34375 118.453125 L 203.292969 102.460938 C 216.660156 89.054688 234.4375 81.667969 253.347656 81.667969 C 272.253906 81.667969 290.03125 89.046875 303.40625 102.460938 C 316.773438 115.867188 324.140625 133.695312 324.140625 152.664062 C 324.140625 171.621094 316.78125 189.449219 303.40625 202.863281 C 302.890625 203.367188 302.226562 203.617188 301.566406 203.617188 Z M 301.566406 203.617188 " fill-opacity="1" fill-rule="nonzero"/><g clip-path="url(#f446c83921)"><path fill="#cba35c" d="M 119.007812 71.707031 L 97.308594 56.476562 L 104.332031 39.992188 L 133.6875 39.992188 L 140.710938 56.476562 Z M 103.695312 54.648438 L 119.007812 65.390625 L 134.324219 54.648438 L 130.28125 45.164062 L 107.734375 45.164062 Z M 103.695312 54.648438 " fill-opacity="1" fill-rule="nonzero"/></g><g clip-path="url(#2b19c1bd3e)"><path fill="#cba35c" d="M 255.667969 71.707031 L 233.964844 56.476562 L 240.992188 39.992188 L 270.34375 39.992188 L 277.371094 56.476562 Z M 240.355469 54.648438 L 255.667969 65.390625 L 270.984375 54.648438 L 266.941406 45.164062 L 244.394531 45.164062 Z M 240.355469 54.648438 " fill-opacity="1" fill-rule="nonzero"/></g><g transform="matrix(1, 0, 0, 1, 72, 266)"><g clip-path="url(#9ca8ce6c3b)"><g clip-path="url(#a7a559fc1f)"><g fill="#41372b" fill-opacity="1"><g transform="translate(0.948368, 33.807172)"><g><path d="M 1.953125 -24.8125 C 1.953125 -26.34375 2.40625 -27.75 3.3125 -29.03125 C 4.21875 -30.3125 5.539062 -31.34375 7.28125 -32.125 C 9.019531 -32.914062 11.144531 -33.3125 13.65625 -33.3125 C 15.65625 -33.3125 17.390625 -33.164062 18.859375 -32.875 C 20.328125 -32.59375 21.691406 -32.238281 22.953125 -31.8125 L 22.953125 -27.4375 L 22.625 -27.4375 C 22.625 -27.4375 22.535156 -27.617188 22.359375 -27.984375 C 22.191406 -28.359375 21.898438 -28.816406 21.484375 -29.359375 C 21.078125 -29.898438 20.53125 -30.441406 19.84375 -30.984375 C 19.15625 -31.535156 18.296875 -31.992188 17.265625 -32.359375 C 16.242188 -32.734375 15.039062 -32.921875 13.65625 -32.921875 C 11.625 -32.921875 9.90625 -32.5625 8.5 -31.84375 C 7.101562 -31.125 6.046875 -30.207031 5.328125 -29.09375 C 4.609375 -27.988281 4.25 -26.828125 4.25 -25.609375 C 4.25 -24.492188 4.535156 -23.539062 5.109375 -22.75 C 5.679688 -21.96875 6.460938 -21.296875 7.453125 -20.734375 C 8.453125 -20.171875 9.5625 -19.671875 10.78125 -19.234375 C 12 -18.796875 13.257812 -18.359375 14.5625 -17.921875 C 15.875 -17.492188 17.140625 -17.019531 18.359375 -16.5 C 19.578125 -15.988281 20.679688 -15.375 21.671875 -14.65625 C 22.660156 -13.9375 23.441406 -13.070312 24.015625 -12.0625 C 24.597656 -11.050781 24.890625 -9.828125 24.890625 -8.390625 C 24.890625 -7.253906 24.601562 -6.148438 24.03125 -5.078125 C 23.46875 -4.003906 22.648438 -3.035156 21.578125 -2.171875 C 20.515625 -1.304688 19.234375 -0.617188 17.734375 -0.109375 C 16.234375 0.398438 14.535156 0.65625 12.640625 0.65625 C 11.203125 0.65625 9.828125 0.445312 8.515625 0.03125 C 7.210938 -0.382812 6.015625 -0.898438 4.921875 -1.515625 C 3.835938 -2.140625 2.894531 -2.742188 2.09375 -3.328125 L 2.09375 -7.703125 L 2.421875 -7.703125 C 2.421875 -7.703125 2.585938 -7.441406 2.921875 -6.921875 C 3.253906 -6.398438 3.753906 -5.753906 4.421875 -4.984375 C 5.085938 -4.210938 5.90625 -3.4375 6.875 -2.65625 C 7.84375 -1.882812 8.960938 -1.238281 10.234375 -0.71875 C 11.503906 -0.195312 12.914062 0.0625 14.46875 0.0625 C 15.664062 0.0625 16.78125 -0.128906 17.8125 -0.515625 C 18.84375 -0.910156 19.742188 -1.445312 20.515625 -2.125 C 21.296875 -2.800781 21.898438 -3.5625 22.328125 -4.40625 C 22.765625 -5.257812 22.984375 -6.140625 22.984375 -7.046875 C 22.984375 -8.265625 22.6875 -9.316406 22.09375 -10.203125 C 21.507812 -11.085938 20.71875 -11.84375 19.71875 -12.46875 C 18.71875 -13.101562 17.59375 -13.671875 16.34375 -14.171875 C 15.09375 -14.671875 13.800781 -15.148438 12.46875 -15.609375 C 11.144531 -16.066406 9.859375 -16.554688 8.609375 -17.078125 C 7.359375 -17.597656 6.226562 -18.203125 5.21875 -18.890625 C 4.21875 -19.578125 3.421875 -20.40625 2.828125 -21.375 C 2.242188 -22.34375 1.953125 -23.488281 1.953125 -24.8125 Z M 1.953125 -24.8125 "/></g></g></g></g><g fill="#41372b" fill-opacity="1"><g transform="translate(27.793006, 33.807172)"><g><path d="M 1.953125 -6.59375 C 1.953125 -8.226562 2.25 -9.582031 2.84375 -10.65625 C 3.445312 -11.738281 4.238281 -12.613281 5.21875 -13.28125 C 6.195312 -13.957031 7.273438 -14.5 8.453125 -14.90625 C 9.628906 -15.3125 10.804688 -15.648438 11.984375 -15.921875 C 13.160156 -16.191406 14.238281 -16.472656 15.21875 -16.765625 C 16.195312 -17.054688 16.984375 -17.429688 17.578125 -17.890625 C 18.179688 -18.347656 18.484375 -18.957031 18.484375 -19.71875 C 18.484375 -20.613281 18.1875 -21.332031 17.59375 -21.875 C 17.007812 -22.425781 16.28125 -22.828125 15.40625 -23.078125 C 14.539062 -23.328125 13.660156 -23.453125 12.765625 -23.453125 C 11.742188 -23.453125 10.765625 -23.328125 9.828125 -23.078125 C 8.890625 -22.828125 8.125 -22.421875 7.53125 -21.859375 C 6.945312 -21.304688 6.65625 -20.570312 6.65625 -19.65625 C 6.65625 -19.050781 6.832031 -18.609375 7.1875 -18.328125 C 7.550781 -18.054688 7.8125 -18 7.96875 -18.15625 C 8.144531 -17.675781 8.019531 -17.238281 7.59375 -16.84375 C 7.164062 -16.457031 6.679688 -16.265625 6.140625 -16.265625 C 5.441406 -16.265625 4.875 -16.523438 4.4375 -17.046875 C 4 -17.566406 3.78125 -18.175781 3.78125 -18.875 C 3.78125 -19.96875 4.171875 -20.867188 4.953125 -21.578125 C 5.742188 -22.296875 6.816406 -22.84375 8.171875 -23.21875 C 9.535156 -23.59375 11.066406 -23.78125 12.765625 -23.78125 C 13.679688 -23.78125 14.632812 -23.6875 15.625 -23.5 C 16.613281 -23.3125 17.53125 -23.035156 18.375 -22.671875 C 19.226562 -22.316406 19.921875 -21.890625 20.453125 -21.390625 C 20.992188 -20.890625 21.265625 -20.3125 21.265625 -19.65625 C 21.265625 -19 21.035156 -18.472656 20.578125 -18.078125 C 20.117188 -17.691406 19.492188 -17.382812 18.703125 -17.15625 C 17.921875 -16.925781 17.039062 -16.710938 16.0625 -16.515625 C 15.082031 -16.328125 14.078125 -16.109375 13.046875 -15.859375 C 12.015625 -15.609375 11.007812 -15.265625 10.03125 -14.828125 C 9.050781 -14.390625 8.164062 -13.820312 7.375 -13.125 C 6.59375 -12.425781 5.972656 -11.523438 5.515625 -10.421875 C 5.054688 -9.328125 4.828125 -7.988281 4.828125 -6.40625 C 4.828125 -5.269531 5.050781 -4.25 5.5 -3.34375 C 5.945312 -2.4375 6.570312 -1.722656 7.375 -1.203125 C 8.1875 -0.679688 9.125 -0.421875 10.1875 -0.421875 C 11.082031 -0.421875 11.988281 -0.660156 12.90625 -1.140625 C 13.832031 -1.617188 14.695312 -2.378906 15.5 -3.421875 C 16.3125 -4.472656 16.960938 -5.832031 17.453125 -7.5 C 17.941406 -9.164062 18.1875 -11.179688 18.1875 -13.546875 C 18.1875 -13.921875 18.15625 -14.265625 18.09375 -14.578125 C 18.03125 -14.890625 17.878906 -15.082031 17.640625 -15.15625 C 17.640625 -15.257812 17.71875 -15.359375 17.875 -15.453125 C 18.039062 -15.554688 18.253906 -15.609375 18.515625 -15.609375 C 19.316406 -15.609375 19.898438 -15.363281 20.265625 -14.875 C 20.640625 -14.382812 20.882812 -13.753906 21 -12.984375 C 21.125 -12.210938 21.1875 -11.390625 21.1875 -10.515625 C 21.1875 -9.796875 21.1875 -9.191406 21.1875 -8.703125 C 21.1875 -8.210938 21.191406 -7.742188 21.203125 -7.296875 C 21.210938 -6.847656 21.21875 -6.347656 21.21875 -5.796875 C 21.21875 -5.242188 21.21875 -4.53125 21.21875 -3.65625 C 21.21875 -2.738281 21.363281 -2.039062 21.65625 -1.5625 C 21.957031 -1.082031 22.300781 -0.753906 22.6875 -0.578125 C 23.082031 -0.410156 23.421875 -0.328125 23.703125 -0.328125 L 23.703125 0 L 21.390625 0 C 20.515625 0 19.773438 -0.367188 19.171875 -1.109375 C 18.578125 -1.847656 18.28125 -2.828125 18.28125 -4.046875 L 18.28125 -9.640625 C 18 -8.242188 17.628906 -6.925781 17.171875 -5.6875 C 16.710938 -4.445312 16.140625 -3.347656 15.453125 -2.390625 C 14.773438 -1.429688 13.925781 -0.679688 12.90625 -0.140625 C 11.894531 0.390625 10.671875 0.65625 9.234375 0.65625 C 7.847656 0.65625 6.601562 0.347656 5.5 -0.265625 C 4.40625 -0.890625 3.539062 -1.75 2.90625 -2.84375 C 2.269531 -3.945312 1.953125 -5.195312 1.953125 -6.59375 Z M 1.953125 -6.59375 "/></g></g></g><g fill="#41372b" fill-opacity="1"><g transform="translate(52.155661, 33.807172)"><g><path d="M 0.984375 -0.328125 C 1.921875 -0.328125 2.597656 -0.609375 3.015625 -1.171875 C 3.441406 -1.742188 3.707031 -2.671875 3.8125 -3.953125 C 3.925781 -5.234375 3.984375 -6.941406 3.984375 -9.078125 L 3.984375 -14.046875 C 3.984375 -16.203125 3.925781 -17.914062 3.8125 -19.1875 C 3.707031 -20.457031 3.441406 -21.375 3.015625 -21.9375 C 2.597656 -22.507812 1.921875 -22.796875 0.984375 -22.796875 L 0.984375 -23.125 L 4.703125 -23.125 C 5.597656 -23.125 6.59375 -23.175781 7.6875 -23.28125 C 8.789062 -23.394531 9.851562 -23.503906 10.875 -23.609375 C 11.894531 -23.722656 12.710938 -23.78125 13.328125 -23.78125 C 13.910156 -23.78125 14.578125 -23.738281 15.328125 -23.65625 C 16.078125 -23.582031 16.84375 -23.421875 17.625 -23.171875 C 18.414062 -22.921875 19.140625 -22.53125 19.796875 -22 C 20.460938 -21.476562 21.003906 -20.769531 21.421875 -19.875 C 21.835938 -18.988281 22.046875 -17.859375 22.046875 -16.484375 L 22.046875 -9.078125 C 22.046875 -6.941406 22.097656 -5.234375 22.203125 -3.953125 C 22.316406 -2.671875 22.582031 -1.742188 23 -1.171875 C 23.425781 -0.609375 24.109375 -0.328125 25.046875 -0.328125 L 25.046875 0 L 16.234375 0 L 16.234375 -0.328125 C 17.171875 -0.328125 17.847656 -0.609375 18.265625 -1.171875 C 18.691406 -1.742188 18.957031 -2.671875 19.0625 -3.953125 C 19.175781 -5.234375 19.234375 -6.941406 19.234375 -9.078125 C 19.234375 -9.273438 19.234375 -9.628906 19.234375 -10.140625 C 19.234375 -10.648438 19.234375 -11.222656 19.234375 -11.859375 C 19.234375 -12.503906 19.226562 -13.125 19.21875 -13.71875 C 19.207031 -14.320312 19.203125 -14.820312 19.203125 -15.21875 C 19.203125 -15.613281 19.203125 -15.8125 19.203125 -15.8125 C 19.203125 -17.269531 19.019531 -18.460938 18.65625 -19.390625 C 18.300781 -20.328125 17.832031 -21.0625 17.25 -21.59375 C 16.675781 -22.132812 16.054688 -22.53125 15.390625 -22.78125 C 14.734375 -23.03125 14.085938 -23.179688 13.453125 -23.234375 C 12.816406 -23.285156 12.285156 -23.3125 11.859375 -23.3125 C 11.023438 -23.3125 10.164062 -23.222656 9.28125 -23.046875 C 8.40625 -22.878906 7.578125 -22.65625 6.796875 -22.375 L 6.796875 -9.078125 C 6.796875 -6.941406 6.847656 -5.234375 6.953125 -3.953125 C 7.066406 -2.671875 7.332031 -1.742188 7.75 -1.171875 C 8.175781 -0.609375 8.859375 -0.328125 9.796875 -0.328125 L 9.796875 0 L 0.984375 0 Z M 0.984375 -0.328125 "/></g></g></g><g fill="#41372b" fill-opacity="1"><g transform="translate(77.857281, 33.807172)"><g><path d="M 1.953125 -6.59375 C 1.953125 -8.226562 2.25 -9.582031 2.84375 -10.65625 C 3.445312 -11.738281 4.238281 -12.613281 5.21875 -13.28125 C 6.195312 -13.957031 7.273438 -14.5 8.453125 -14.90625 C 9.628906 -15.3125 10.804688 -15.648438 11.984375 -15.921875 C 13.160156 -16.191406 14.238281 -16.472656 15.21875 -16.765625 C 16.195312 -17.054688 16.984375 -17.429688 17.578125 -17.890625 C 18.179688 -18.347656 18.484375 -18.957031 18.484375 -19.71875 C 18.484375 -20.613281 18.1875 -21.332031 17.59375 -21.875 C 17.007812 -22.425781 16.28125 -22.828125 15.40625 -23.078125 C 14.539062 -23.328125 13.660156 -23.453125 12.765625 -23.453125 C 11.742188 -23.453125 10.765625 -23.328125 9.828125 -23.078125 C 8.890625 -22.828125 8.125 -22.421875 7.53125 -21.859375 C 6.945312 -21.304688 6.65625 -20.570312 6.65625 -19.65625 C 6.65625 -19.050781 6.832031 -18.609375 7.1875 -18.328125 C 7.550781 -18.054688 7.8125 -18 7.96875 -18.15625 C 8.144531 -17.675781 8.019531 -17.238281 7.59375 -16.84375 C 7.164062 -16.457031 6.679688 -16.265625 6.140625 -16.265625 C 5.441406 -16.265625 4.875 -16.523438 4.4375 -17.046875 C 4 -17.566406 3.78125 -18.175781 3.78125 -18.875 C 3.78125 -19.96875 4.171875 -20.867188 4.953125 -21.578125 C 5.742188 -22.296875 6.816406 -22.84375 8.171875 -23.21875 C 9.535156 -23.59375 11.066406 -23.78125 12.765625 -23.78125 C 13.679688 -23.78125 14.632812 -23.6875 15.625 -23.5 C 16.613281 -23.3125 17.53125 -23.035156 18.375 -22.671875 C 19.226562 -22.316406 19.921875 -21.890625 20.453125 -21.390625 C 20.992188 -20.890625 21.265625 -20.3125 21.265625 -19.65625 C 21.265625 -19 21.035156 -18.472656 20.578125 -18.078125 C 20.117188 -17.691406 19.492188 -17.382812 18.703125 -17.15625 C 17.921875 -16.925781 17.039062 -16.710938 16.0625 -16.515625 C 15.082031 -16.328125 14.078125 -16.109375 13.046875 -15.859375 C 12.015625 -15.609375 11.007812 -15.265625 10.03125 -14.828125 C 9.050781 -14.390625 8.164062 -13.820312 7.375 -13.125 C 6.59375 -12.425781 5.972656 -11.523438 5.515625 -10.421875 C 5.054688 -9.328125 4.828125 -7.988281 4.828125 -6.40625 C 4.828125 -5.269531 5.050781 -4.25 5.5 -3.34375 C 5.945312 -2.4375 6.570312 -1.722656 7.375 -1.203125 C 8.1875 -0.679688 9.125 -0.421875 10.1875 -0.421875 C 11.082031 -0.421875 11.988281 -0.660156 12.90625 -1.140625 C 13.832031 -1.617188 14.695312 -2.378906 15.5 -3.421875 C 16.3125 -4.472656 16.960938 -5.832031 17.453125 -7.5 C 17.941406 -9.164062 18.1875 -11.179688 18.1875 -13.546875 C 18.1875 -13.921875 18.15625 -14.265625 18.09375 -14.578125 C 18.03125 -14.890625 17.878906 -15.082031 17.640625 -15.15625 C 17.640625 -15.257812 17.71875 -15.359375 17.875 -15.453125 C 18.039062 -15.554688 18.253906 -15.609375 18.515625 -15.609375 C 19.316406 -15.609375 19.898438 -15.363281 20.265625 -14.875 C 20.640625 -14.382812 20.882812 -13.753906 21 -12.984375 C 21.125 -12.210938 21.1875 -11.390625 21.1875 -10.515625 C 21.1875 -9.796875 21.1875 -9.191406 21.1875 -8.703125 C 21.1875 -8.210938 21.191406 -7.742188 21.203125 -7.296875 C 21.210938 -6.847656 21.21875 -6.347656 21.21875 -5.796875 C 21.21875 -5.242188 21.21875 -4.53125 21.21875 -3.65625 C 21.21875 -2.738281 21.363281 -2.039062 21.65625 -1.5625 C 21.957031 -1.082031 22.300781 -0.753906 22.6875 -0.578125 C 23.082031 -0.410156 23.421875 -0.328125 23.703125 -0.328125 L 23.703125 0 L 21.390625 0 C 20.515625 0 19.773438 -0.367188 19.171875 -1.109375 C 18.578125 -1.847656 18.28125 -2.828125 18.28125 -4.046875 L 18.28125 -9.640625 C 18 -8.242188 17.628906 -6.925781 17.171875 -5.6875 C 16.710938 -4.445312 16.140625 -3.347656 15.453125 -2.390625 C 14.773438 -1.429688 13.925781 -0.679688 12.90625 -0.140625 C 11.894531 0.390625 10.671875 0.65625 9.234375 0.65625 C 7.847656 0.65625 6.601562 0.347656 5.5 -0.265625 C 4.40625 -0.890625 3.539062 -1.75 2.90625 -2.84375 C 2.269531 -3.945312 1.953125 -5.195312 1.953125 -6.59375 Z M 1.953125 -6.59375 "/></g></g></g><g fill="#41372b" fill-opacity="1"><g transform="translate(102.21994, 33.807172)"><g/></g></g><g clip-path="url(#7e322793ec)"><g fill="#41372b" fill-opacity="1"><g transform="translate(113.650133, 33.807172)"><g><path d="M 0.984375 0 L 0.984375 -0.328125 C 1.921875 -0.328125 2.597656 -0.609375 3.015625 -1.171875 C 3.441406 -1.742188 3.707031 -2.671875 3.8125 -3.953125 C 3.925781 -5.234375 3.984375 -6.941406 3.984375 -9.078125 L 3.984375 -23.578125 C 3.984375 -25.734375 3.925781 -27.445312 3.8125 -28.71875 C 3.707031 -29.988281 3.441406 -30.90625 3.015625 -31.46875 C 2.597656 -32.039062 1.921875 -32.328125 0.984375 -32.328125 L 0.984375 -32.65625 L 4.890625 -32.65625 C 6.085938 -32.65625 7.179688 -32.707031 8.171875 -32.8125 C 9.171875 -32.925781 10.175781 -33.035156 11.1875 -33.140625 C 12.195312 -33.253906 13.332031 -33.3125 14.59375 -33.3125 C 16.925781 -33.3125 18.894531 -32.910156 20.5 -32.109375 C 22.113281 -31.316406 23.335938 -30.234375 24.171875 -28.859375 C 25.015625 -27.492188 25.4375 -25.921875 25.4375 -24.140625 C 25.4375 -22.648438 25.050781 -21.253906 24.28125 -19.953125 C 23.507812 -18.648438 22.425781 -17.597656 21.03125 -16.796875 C 19.632812 -16.003906 17.988281 -15.609375 16.09375 -15.609375 C 15.332031 -15.609375 14.625 -15.710938 13.96875 -15.921875 C 13.320312 -16.128906 12.726562 -16.375 12.1875 -16.65625 C 11.65625 -16.9375 11.171875 -17.179688 10.734375 -17.390625 C 10.304688 -17.597656 9.914062 -17.703125 9.5625 -17.703125 C 9.375 -17.703125 9.171875 -17.648438 8.953125 -17.546875 C 8.734375 -17.453125 8.625 -17.21875 8.625 -16.84375 C 8.625 -16.4375 8.863281 -16.066406 9.34375 -15.734375 C 9.820312 -15.410156 10.441406 -15.082031 11.203125 -14.75 C 11.960938 -14.425781 12.773438 -14.066406 13.640625 -13.671875 C 14.515625 -13.285156 15.351562 -12.804688 16.15625 -12.234375 C 16.96875 -11.671875 17.632812 -10.976562 18.15625 -10.15625 C 18.8125 -9.15625 19.484375 -8.082031 20.171875 -6.9375 C 20.867188 -5.789062 21.601562 -4.71875 22.375 -3.71875 C 23.15625 -2.71875 23.96875 -1.898438 24.8125 -1.265625 C 25.664062 -0.640625 26.5625 -0.328125 27.5 -0.328125 L 27.5 0 L 22.5 0 C 22.125 0 21.757812 -0.148438 21.40625 -0.453125 C 21.050781 -0.765625 20.609375 -1.285156 20.078125 -2.015625 C 19.554688 -2.742188 18.882812 -3.738281 18.0625 -5 C 17.25 -6.257812 16.203125 -7.859375 14.921875 -9.796875 C 14.140625 -10.992188 13.351562 -11.941406 12.5625 -12.640625 C 11.78125 -13.335938 11.066406 -13.894531 10.421875 -14.3125 C 9.785156 -14.738281 9.269531 -15.140625 8.875 -15.515625 C 8.488281 -15.898438 8.296875 -16.367188 8.296875 -16.921875 C 8.296875 -17.304688 8.414062 -17.585938 8.65625 -17.765625 C 8.894531 -17.941406 9.15625 -18.03125 9.4375 -18.03125 C 9.914062 -18.03125 10.382812 -17.9375 10.84375 -17.75 C 11.300781 -17.5625 11.773438 -17.34375 12.265625 -17.09375 C 12.753906 -16.84375 13.289062 -16.625 13.875 -16.4375 C 14.46875 -16.257812 15.144531 -16.171875 15.90625 -16.171875 C 16.925781 -16.171875 17.847656 -16.394531 18.671875 -16.84375 C 19.503906 -17.300781 20.210938 -17.90625 20.796875 -18.65625 C 21.390625 -19.414062 21.84375 -20.265625 22.15625 -21.203125 C 22.46875 -22.148438 22.625 -23.113281 22.625 -24.09375 C 22.625 -25.90625 22.222656 -27.460938 21.421875 -28.765625 C 20.617188 -30.078125 19.472656 -31.085938 17.984375 -31.796875 C 16.503906 -32.503906 14.753906 -32.859375 12.734375 -32.859375 C 11.535156 -32.859375 10.488281 -32.773438 9.59375 -32.609375 C 8.707031 -32.441406 7.765625 -32.175781 6.765625 -31.8125 L 6.765625 -9.078125 C 6.765625 -6.941406 6.816406 -5.234375 6.921875 -3.953125 C 7.035156 -2.671875 7.300781 -1.742188 7.71875 -1.171875 C 8.144531 -0.609375 8.828125 -0.328125 9.765625 -0.328125 L 9.765625 0 Z M 0.984375 0 "/></g></g></g></g><g fill="#41372b" fill-opacity="1"><g transform="translate(139.188067, 33.807172)"><g><path d="M 1.953125 -6.59375 C 1.953125 -8.226562 2.25 -9.582031 2.84375 -10.65625 C 3.445312 -11.738281 4.238281 -12.613281 5.21875 -13.28125 C 6.195312 -13.957031 7.273438 -14.5 8.453125 -14.90625 C 9.628906 -15.3125 10.804688 -15.648438 11.984375 -15.921875 C 13.160156 -16.191406 14.238281 -16.472656 15.21875 -16.765625 C 16.195312 -17.054688 16.984375 -17.429688 17.578125 -17.890625 C 18.179688 -18.347656 18.484375 -18.957031 18.484375 -19.71875 C 18.484375 -20.613281 18.1875 -21.332031 17.59375 -21.875 C 17.007812 -22.425781 16.28125 -22.828125 15.40625 -23.078125 C 14.539062 -23.328125 13.660156 -23.453125 12.765625 -23.453125 C 11.742188 -23.453125 10.765625 -23.328125 9.828125 -23.078125 C 8.890625 -22.828125 8.125 -22.421875 7.53125 -21.859375 C 6.945312 -21.304688 6.65625 -20.570312 6.65625 -19.65625 C 6.65625 -19.050781 6.832031 -18.609375 7.1875 -18.328125 C 7.550781 -18.054688 7.8125 -18 7.96875 -18.15625 C 8.144531 -17.675781 8.019531 -17.238281 7.59375 -16.84375 C 7.164062 -16.457031 6.679688 -16.265625 6.140625 -16.265625 C 5.441406 -16.265625 4.875 -16.523438 4.4375 -17.046875 C 4 -17.566406 3.78125 -18.175781 3.78125 -18.875 C 3.78125 -19.96875 4.171875 -20.867188 4.953125 -21.578125 C 5.742188 -22.296875 6.816406 -22.84375 8.171875 -23.21875 C 9.535156 -23.59375 11.066406 -23.78125 12.765625 -23.78125 C 13.679688 -23.78125 14.632812 -23.6875 15.625 -23.5 C 16.613281 -23.3125 17.53125 -23.035156 18.375 -22.671875 C 19.226562 -22.316406 19.921875 -21.890625 20.453125 -21.390625 C 20.992188 -20.890625 21.265625 -20.3125 21.265625 -19.65625 C 21.265625 -19 21.035156 -18.472656 20.578125 -18.078125 C 20.117188 -17.691406 19.492188 -17.382812 18.703125 -17.15625 C 17.921875 -16.925781 17.039062 -16.710938 16.0625 -16.515625 C 15.082031 -16.328125 14.078125 -16.109375 13.046875 -15.859375 C 12.015625 -15.609375 11.007812 -15.265625 10.03125 -14.828125 C 9.050781 -14.390625 8.164062 -13.820312 7.375 -13.125 C 6.59375 -12.425781 5.972656 -11.523438 5.515625 -10.421875 C 5.054688 -9.328125 4.828125 -7.988281 4.828125 -6.40625 C 4.828125 -5.269531 5.050781 -4.25 5.5 -3.34375 C 5.945312 -2.4375 6.570312 -1.722656 7.375 -1.203125 C 8.1875 -0.679688 9.125 -0.421875 10.1875 -0.421875 C 11.082031 -0.421875 11.988281 -0.660156 12.90625 -1.140625 C 13.832031 -1.617188 14.695312 -2.378906 15.5 -3.421875 C 16.3125 -4.472656 16.960938 -5.832031 17.453125 -7.5 C 17.941406 -9.164062 18.1875 -11.179688 18.1875 -13.546875 C 18.1875 -13.921875 18.15625 -14.265625 18.09375 -14.578125 C 18.03125 -14.890625 17.878906 -15.082031 17.640625 -15.15625 C 17.640625 -15.257812 17.71875 -15.359375 17.875 -15.453125 C 18.039062 -15.554688 18.253906 -15.609375 18.515625 -15.609375 C 19.316406 -15.609375 19.898438 -15.363281 20.265625 -14.875 C 20.640625 -14.382812 20.882812 -13.753906 21 -12.984375 C 21.125 -12.210938 21.1875 -11.390625 21.1875 -10.515625 C 21.1875 -9.796875 21.1875 -9.191406 21.1875 -8.703125 C 21.1875 -8.210938 21.191406 -7.742188 21.203125 -7.296875 C 21.210938 -6.847656 21.21875 -6.347656 21.21875 -5.796875 C 21.21875 -5.242188 21.21875 -4.53125 21.21875 -3.65625 C 21.21875 -2.738281 21.363281 -2.039062 21.65625 -1.5625 C 21.957031 -1.082031 22.300781 -0.753906 22.6875 -0.578125 C 23.082031 -0.410156 23.421875 -0.328125 23.703125 -0.328125 L 23.703125 0 L 21.390625 0 C 20.515625 0 19.773438 -0.367188 19.171875 -1.109375 C 18.578125 -1.847656 18.28125 -2.828125 18.28125 -4.046875 L 18.28125 -9.640625 C 18 -8.242188 17.628906 -6.925781 17.171875 -5.6875 C 16.710938 -4.445312 16.140625 -3.347656 15.453125 -2.390625 C 14.773438 -1.429688 13.925781 -0.679688 12.90625 -0.140625 C 11.894531 0.390625 10.671875 0.65625 9.234375 0.65625 C 7.847656 0.65625 6.601562 0.347656 5.5 -0.265625 C 4.40625 -0.890625 3.539062 -1.75 2.90625 -2.84375 C 2.269531 -3.945312 1.953125 -5.195312 1.953125 -6.59375 Z M 1.953125 -6.59375 "/></g></g></g><g fill="#41372b" fill-opacity="1"><g transform="translate(163.550726, 33.807172)"><g><path d="M 0.984375 -0.328125 C 1.921875 -0.328125 2.597656 -0.609375 3.015625 -1.171875 C 3.441406 -1.742188 3.707031 -2.671875 3.8125 -3.953125 C 3.925781 -5.234375 3.984375 -6.941406 3.984375 -9.078125 L 3.984375 -14.046875 C 3.984375 -16.203125 3.925781 -17.914062 3.8125 -19.1875 C 3.707031 -20.457031 3.441406 -21.375 3.015625 -21.9375 C 2.597656 -22.507812 1.921875 -22.796875 0.984375 -22.796875 L 0.984375 -23.125 L 4.703125 -23.125 C 5.597656 -23.125 6.59375 -23.175781 7.6875 -23.28125 C 8.789062 -23.394531 9.851562 -23.503906 10.875 -23.609375 C 11.894531 -23.722656 12.710938 -23.78125 13.328125 -23.78125 C 13.910156 -23.78125 14.578125 -23.738281 15.328125 -23.65625 C 16.078125 -23.582031 16.84375 -23.421875 17.625 -23.171875 C 18.414062 -22.921875 19.140625 -22.53125 19.796875 -22 C 20.460938 -21.476562 21.003906 -20.769531 21.421875 -19.875 C 21.835938 -18.988281 22.046875 -17.859375 22.046875 -16.484375 L 22.046875 -9.078125 C 22.046875 -6.941406 22.097656 -5.234375 22.203125 -3.953125 C 22.316406 -2.671875 22.582031 -1.742188 23 -1.171875 C 23.425781 -0.609375 24.109375 -0.328125 25.046875 -0.328125 L 25.046875 0 L 16.234375 0 L 16.234375 -0.328125 C 17.171875 -0.328125 17.847656 -0.609375 18.265625 -1.171875 C 18.691406 -1.742188 18.957031 -2.671875 19.0625 -3.953125 C 19.175781 -5.234375 19.234375 -6.941406 19.234375 -9.078125 C 19.234375 -9.273438 19.234375 -9.628906 19.234375 -10.140625 C 19.234375 -10.648438 19.234375 -11.222656 19.234375 -11.859375 C 19.234375 -12.503906 19.226562 -13.125 19.21875 -13.71875 C 19.207031 -14.320312 19.203125 -14.820312 19.203125 -15.21875 C 19.203125 -15.613281 19.203125 -15.8125 19.203125 -15.8125 C 19.203125 -17.269531 19.019531 -18.460938 18.65625 -19.390625 C 18.300781 -20.328125 17.832031 -21.0625 17.25 -21.59375 C 16.675781 -22.132812 16.054688 -22.53125 15.390625 -22.78125 C 14.734375 -23.03125 14.085938 -23.179688 13.453125 -23.234375 C 12.816406 -23.285156 12.285156 -23.3125 11.859375 -23.3125 C 11.023438 -23.3125 10.164062 -23.222656 9.28125 -23.046875 C 8.40625 -22.878906 7.578125 -22.65625 6.796875 -22.375 L 6.796875 -9.078125 C 6.796875 -6.941406 6.847656 -5.234375 6.953125 -3.953125 C 7.066406 -2.671875 7.332031 -1.742188 7.75 -1.171875 C 8.175781 -0.609375 8.859375 -0.328125 9.796875 -0.328125 L 9.796875 0 L 0.984375 0 Z M 0.984375 -0.328125 "/></g></g></g><g fill="#41372b" fill-opacity="1"><g transform="translate(189.252347, 33.807172)"><g><path d="M 9.796875 0 L 0.984375 0 L 0.984375 -0.328125 C 1.921875 -0.328125 2.597656 -0.609375 3.015625 -1.171875 C 3.441406 -1.742188 3.707031 -2.671875 3.8125 -3.953125 C 3.925781 -5.234375 3.984375 -6.941406 3.984375 -9.078125 L 3.984375 -14.046875 C 3.984375 -16.203125 3.925781 -17.914062 3.8125 -19.1875 C 3.707031 -20.457031 3.441406 -21.375 3.015625 -21.9375 C 2.597656 -22.507812 1.921875 -22.796875 0.984375 -22.796875 L 0.984375 -23.125 L 6.796875 -23.125 L 6.796875 -9.078125 C 6.796875 -6.941406 6.847656 -5.234375 6.953125 -3.953125 C 7.066406 -2.671875 7.332031 -1.742188 7.75 -1.171875 C 8.175781 -0.609375 8.859375 -0.328125 9.796875 -0.328125 Z M 3.03125 -27.40625 C 3.03125 -28.007812 3.242188 -28.523438 3.671875 -28.953125 C 4.097656 -29.378906 4.613281 -29.59375 5.21875 -29.59375 C 5.832031 -29.59375 6.347656 -29.378906 6.765625 -28.953125 C 7.191406 -28.523438 7.40625 -28.007812 7.40625 -27.40625 C 7.40625 -26.789062 7.191406 -26.269531 6.765625 -25.84375 C 6.347656 -25.414062 5.832031 -25.203125 5.21875 -25.203125 C 4.613281 -25.203125 4.097656 -25.414062 3.671875 -25.84375 C 3.242188 -26.269531 3.03125 -26.789062 3.03125 -27.40625 Z M 3.03125 -27.40625 "/></g></g></g><g clip-path="url(#96247fe0ad)"><g fill="#41372b" fill-opacity="1"><g transform="translate(199.7028, 33.807172)"><g><path d="M 4.140625 -28.9375 C 3.535156 -28.9375 3.019531 -29.144531 2.59375 -29.5625 C 2.164062 -29.988281 1.953125 -30.507812 1.953125 -31.125 C 1.953125 -31.726562 2.164062 -32.242188 2.59375 -32.671875 C 3.019531 -33.097656 3.535156 -33.3125 4.140625 -33.3125 C 4.753906 -33.3125 5.300781 -33.066406 5.78125 -32.578125 C 6.257812 -32.085938 6.5 -31.351562 6.5 -30.375 C 6.5 -29.257812 6.332031 -28.359375 6 -27.671875 C 5.675781 -26.984375 5.304688 -26.453125 4.890625 -26.078125 C 4.484375 -25.710938 4.113281 -25.460938 3.78125 -25.328125 C 3.457031 -25.203125 3.296875 -25.140625 3.296875 -25.140625 L 3.265625 -25.46875 C 3.742188 -25.582031 4.148438 -25.859375 4.484375 -26.296875 C 4.828125 -26.742188 5.066406 -27.25 5.203125 -27.8125 C 5.347656 -28.382812 5.332031 -28.898438 5.15625 -29.359375 C 5.15625 -29.359375 5.078125 -29.285156 4.921875 -29.140625 C 4.773438 -29.003906 4.515625 -28.9375 4.140625 -28.9375 Z M 4.140625 -28.9375 "/></g></g></g></g><g fill="#41372b" fill-opacity="1"><g transform="translate(208.161158, 33.807172)"><g><path d="M 1.953125 -1.34375 L 1.953125 -5.328125 L 2.28125 -5.328125 C 2.28125 -4.929688 2.445312 -4.414062 2.78125 -3.78125 C 3.125 -3.15625 3.632812 -2.519531 4.3125 -1.875 C 4.988281 -1.238281 5.816406 -0.707031 6.796875 -0.28125 C 7.773438 0.144531 8.90625 0.347656 10.1875 0.328125 C 11.382812 0.304688 12.519531 0.0664062 13.59375 -0.390625 C 14.675781 -0.847656 15.5625 -1.507812 16.25 -2.375 C 16.9375 -3.25 17.28125 -4.316406 17.28125 -5.578125 C 17.28125 -6.554688 17.007812 -7.347656 16.46875 -7.953125 C 15.9375 -8.566406 15.226562 -9.070312 14.34375 -9.46875 C 13.46875 -9.863281 12.492188 -10.210938 11.421875 -10.515625 C 10.359375 -10.816406 9.296875 -11.140625 8.234375 -11.484375 C 7.179688 -11.835938 6.210938 -12.273438 5.328125 -12.796875 C 4.453125 -13.316406 3.75 -14 3.21875 -14.84375 C 2.6875 -15.695312 2.421875 -16.78125 2.421875 -18.09375 C 2.421875 -19.113281 2.71875 -20.050781 3.3125 -20.90625 C 3.914062 -21.769531 4.816406 -22.460938 6.015625 -22.984375 C 7.210938 -23.515625 8.691406 -23.78125 10.453125 -23.78125 C 11.816406 -23.78125 13.007812 -23.664062 14.03125 -23.4375 C 15.0625 -23.207031 15.90625 -22.9375 16.5625 -22.625 C 17.226562 -22.320312 17.722656 -22.054688 18.046875 -21.828125 C 18.378906 -21.597656 18.546875 -21.484375 18.546875 -21.484375 L 18.546875 -17.640625 L 18.421875 -17.640625 C 17.785156 -19.503906 16.785156 -20.9375 15.421875 -21.9375 C 14.066406 -22.945312 12.519531 -23.453125 10.78125 -23.453125 C 9.40625 -23.453125 8.234375 -23.226562 7.265625 -22.78125 C 6.296875 -22.332031 5.5625 -21.75 5.0625 -21.03125 C 4.5625 -20.3125 4.3125 -19.539062 4.3125 -18.71875 C 4.3125 -17.757812 4.59375 -16.96875 5.15625 -16.34375 C 5.726562 -15.71875 6.472656 -15.203125 7.390625 -14.796875 C 8.316406 -14.398438 9.332031 -14.035156 10.4375 -13.703125 C 11.550781 -13.378906 12.664062 -13.03125 13.78125 -12.65625 C 14.894531 -12.289062 15.910156 -11.835938 16.828125 -11.296875 C 17.753906 -10.753906 18.5 -10.054688 19.0625 -9.203125 C 19.632812 -8.359375 19.921875 -7.296875 19.921875 -6.015625 C 19.921875 -4.816406 19.648438 -3.789062 19.109375 -2.9375 C 18.578125 -2.09375 17.851562 -1.40625 16.9375 -0.875 C 16.03125 -0.351562 14.992188 0.03125 13.828125 0.28125 C 12.660156 0.53125 11.445312 0.65625 10.1875 0.65625 C 6.769531 0.65625 4.023438 -0.0078125 1.953125 -1.34375 Z M 1.953125 -1.34375 "/></g></g></g></g></g><g transform="matrix(1, 0, 0, 1, 133, 310)"><g clip-path="url(#71787b93ed)"><g clip-path="url(#393c73deb3)"><g fill="#41372b" fill-opacity="1"><g transform="translate(0.430025, 19.914129)"><g><path d="M 14.34375 0 L 12.1875 -9.890625 L 8.015625 0.8125 L 3.828125 -9.890625 L 1.671875 0 L 0.203125 0 L 3.453125 -14.8125 L 8.015625 -2.921875 L 12.5625 -14.8125 L 15.796875 0 Z M 14.34375 0 "/></g></g></g></g><g fill="#41372b" fill-opacity="1"><g transform="translate(16.432076, 19.914129)"><g><path d="M 3.78125 -5.109375 L 8.828125 -5.109375 L 6.3125 -11.5 Z M 12.40625 0 L 10.859375 0 L 9.359375 -3.78125 L 3.25 -3.78125 L 1.75 0 L 0.203125 0 L 6.3125 -14.859375 Z M 12.40625 0 "/></g></g></g><g fill="#41372b" fill-opacity="1"><g transform="translate(27.161317, 19.914129)"><g><path d="M 0.40625 -12.609375 L 0.40625 -13.9375 L 8.578125 -13.9375 L 8.578125 -12.609375 L 5.21875 -12.609375 L 5.21875 -0.046875 L 3.78125 -0.046875 L 3.78125 -12.609375 Z M 0.40625 -12.609375 "/></g></g></g><g fill="#41372b" fill-opacity="1"><g transform="translate(36.15353, 19.914129)"><g><path d="M 2.96875 -6.859375 L 6.1875 -6.859375 C 6.988281 -6.859375 7.648438 -7.132812 8.171875 -7.6875 C 8.703125 -8.238281 8.96875 -8.925781 8.96875 -9.75 C 8.96875 -10.550781 8.71875 -11.21875 8.21875 -11.75 C 7.707031 -12.269531 7.03125 -12.53125 6.1875 -12.53125 L 2.96875 -12.53125 Z M 10.40625 -9.703125 C 10.40625 -8.492188 9.972656 -7.488281 9.109375 -6.6875 C 8.347656 -5.976562 7.429688 -5.585938 6.359375 -5.515625 L 10.625 0 L 8.703125 0 L 4.640625 -5.5 L 2.96875 -5.5 L 2.96875 0 L 1.53125 0 L 1.53125 -13.890625 L 5.984375 -13.890625 C 7.222656 -13.890625 8.265625 -13.503906 9.109375 -12.734375 C 9.972656 -11.910156 10.40625 -10.898438 10.40625 -9.703125 Z M 10.40625 -9.703125 "/></g></g></g><g fill="#41372b" fill-opacity="1"><g transform="translate(47.271176, 19.914129)"><g><path d="M 2.96875 0 L 1.53125 0 L 1.53125 -13.890625 L 2.96875 -13.890625 Z M 2.96875 0 "/></g></g></g><g fill="#41372b" fill-opacity="1"><g transform="translate(51.767283, 19.914129)"><g><path d="M 14.34375 0 L 12.1875 -9.890625 L 8.015625 0.8125 L 3.828125 -9.890625 L 1.671875 0 L 0.203125 0 L 3.453125 -14.8125 L 8.015625 -2.921875 L 12.5625 -14.8125 L 15.796875 0 Z M 14.34375 0 "/></g></g></g><g fill="#41372b" fill-opacity="1"><g transform="translate(67.769334, 19.914129)"><g><path d="M 13.78125 -6.984375 C 13.78125 -8.554688 13.21875 -9.898438 12.09375 -11.015625 C 10.976562 -12.128906 9.628906 -12.6875 8.046875 -12.6875 C 6.484375 -12.6875 5.144531 -12.128906 4.03125 -11.015625 C 2.90625 -9.898438 2.34375 -8.554688 2.34375 -6.984375 C 2.34375 -5.410156 2.90625 -4.0625 4.03125 -2.9375 C 5.144531 -1.820312 6.484375 -1.265625 8.046875 -1.265625 C 9.628906 -1.265625 10.976562 -1.820312 12.09375 -2.9375 C 13.21875 -4.0625 13.78125 -5.410156 13.78125 -6.984375 Z M 15.203125 -6.984375 C 15.203125 -6.003906 15.019531 -5.078125 14.65625 -4.203125 C 14.269531 -3.335938 13.757812 -2.582031 13.125 -1.9375 C 12.46875 -1.28125 11.703125 -0.769531 10.828125 -0.40625 C 9.960938 -0.03125 9.035156 0.15625 8.046875 0.15625 C 7.066406 0.15625 6.148438 -0.03125 5.296875 -0.40625 C 4.421875 -0.769531 3.664062 -1.28125 3.03125 -1.9375 C 2.375 -2.582031 1.859375 -3.335938 1.484375 -4.203125 C 1.109375 -5.078125 0.921875 -6.003906 0.921875 -6.984375 C 0.921875 -7.972656 1.109375 -8.898438 1.484375 -9.765625 C 1.859375 -10.640625 2.375 -11.394531 3.03125 -12.03125 C 3.664062 -12.675781 4.421875 -13.191406 5.296875 -13.578125 C 6.148438 -13.941406 7.066406 -14.125 8.046875 -14.125 C 9.035156 -14.125 9.960938 -13.941406 10.828125 -13.578125 C 11.703125 -13.191406 12.46875 -12.675781 13.125 -12.03125 C 13.757812 -11.394531 14.269531 -10.640625 14.65625 -9.765625 C 15.019531 -8.898438 15.203125 -7.972656 15.203125 -6.984375 Z M 15.203125 -6.984375 "/></g></g></g><g fill="#41372b" fill-opacity="1"><g transform="translate(83.894004, 19.914129)"><g><path d="M 2.96875 -10.234375 L 2.96875 0 L 1.53125 0 L 1.53125 -14.78125 L 9.34375 -3.671875 L 9.34375 -13.890625 L 10.765625 -13.890625 L 10.765625 0.859375 Z M 2.96875 -10.234375 "/></g></g></g><g clip-path="url(#278d8f1431)"><g fill="#41372b" fill-opacity="1"><g transform="translate(96.19698, 19.914129)"><g><path d="M 6.90625 -6.546875 L 6.90625 0 L 5.484375 0 L 5.484375 -6.546875 L 0.203125 -13.890625 L 2.046875 -13.890625 L 6.1875 -7.953125 L 10.34375 -13.890625 L 12.15625 -13.890625 Z M 6.90625 -6.546875 "/></g></g></g></g></g></g></svg>